<?xml version="1.0" encoding="iso-8859-1"?>
<!-- Generator: Adobe Illustrator 19.0.0, SVG Export Plug-In . SVG Version: 6.00 Build 0)  -->
<svg version="1.1" id="Capa_1" xmlns="http://www.w3.org/2000/svg" xmlns:xlink="http://www.w3.org/1999/xlink" x="0px" y="0px"
	 viewBox="0 0 512 512" style="enable-background:new 0 0 512 512;" xml:space="preserve">
<path style="fill:#FEDF63;" d="M427.993,275.737c2.406,0.323,4.887,0.365,7.407,0.073l-13.03,15.68
	c-3.64,4.379-8.017,8.231-12.874,11.511c-6.075,4.102-12.903,7.308-19.999,9.508c-7.353,2.28-14.989,3.491-22.367,3.491
	c-18.122,0-38.353-7.223-51.02-19.89L296,276h10c16.57,0,30-13.43,30-30s-13.43-30-30-30h-15.35
	c2.437-4.212,4.126-8.913,4.889-13.918c-35.074,4.491-68.866,32.603-87.682,73.918H216l-13.615,13.615l-6.495,6.495
	C183.16,308.84,162.88,316,144.87,316c-20.436,0-42.493-9.154-55.24-24.51l-6.609-7.953l46.645,130.796V502H416
	c11.05,0,20-8.95,20-20c0-6.868,0-58.677,0-66l1.593-5.308l48.447-161.49C463.376,250.684,443.003,260.552,427.993,275.737z"/>
<circle style="fill:#FD7FA9;" cx="256" cy="346" r="30"/>
<path style="fill:#FEDF63;" d="M110,246c0-16.57-13.43-30-30-30c-7.084,0-13.592,2.458-18.722,6.569L80.334,276
	C96.38,275.854,110,262.771,110,246z"/>
<path d="M256,469c5.52,0,10-4.48,10-10s-4.48-10-10-10s-10,4.48-10,10S250.48,469,256,469z"/>
<path d="M246,10v66c0,5.522,4.478,10,10,10c5.522,0,10-4.478,10-10V10c0-5.522-4.478-10-10-10C250.477,0,246,4.478,246,10z"/>
<path d="M43.929,93.929c-3.905,3.905-3.905,10.237,0,14.143l56.51,56.51c3.906,3.905,10.237,3.905,14.143,0
	c3.905-3.905,3.905-10.237,0-14.143l-56.51-56.51C54.166,90.024,47.834,90.024,43.929,93.929z"/>
<path d="M453.988,93.869l-56.569,56.569c-3.905,3.905-3.905,10.237,0,14.143c3.907,3.905,10.236,3.904,14.143,0l56.569-56.569
	c3.905-3.905,3.905-10.237,0-14.143C464.225,89.965,457.895,89.965,453.988,93.869z"/>
<path d="M502,186c-20.149,0-38.923,9.229-51.216,24.659C445.076,207.614,438.667,206,432,206c-22.056,0-40,17.944-40,40
	c0,16.57,10.13,30.82,24.521,36.884l-1.84,2.214C404.286,297.6,385.178,306,367.13,306c-15.314,0-33.084-6.097-43.948-16.961
	l-4.951-4.951C334.323,278.909,346,263.793,346,246c0-22.056-17.944-40-40-40h-1.014c1.436-7.092,1.339-14.521-0.355-21.832
	c-4.265-18.365-19.582-33.268-38.116-37.083C234.718,140.536,206,164.588,206,196c0,3.371,0.341,6.723,1.008,10H206
	c-22.056,0-40,17.944-40,40c0,17.793,11.677,32.909,27.77,38.088l-4.951,4.951C178.516,299.343,161.265,306,144.87,306
	c-17.456,0-36.711-7.845-47.549-20.9l-1.841-2.216C109.871,276.82,120,262.57,120,246c0-22.056-17.944-40-40-40
	c-6.667,0-13.076,1.614-18.784,4.659C48.923,195.229,30.15,186,10,186c-3.161,0-6.136,1.494-8.023,4.03s-2.463,5.815-1.555,8.843
	L62.56,406H56c-5.523,0-10,4.478-10,10s4.477,10,10,10h10v56c0,16.542,13.458,30,30,30h320c16.542,0,30-13.458,30-30v-56h10
	c5.522,0,10-4.478,10-10s-4.478-10-10-10h-6.56l62.138-207.127c0.908-3.027,0.332-6.307-1.556-8.843
	C508.136,187.494,505.161,186,502,186z M426,449H296c-5.522,0-10,4.478-10,10s4.478,10,10,10h130v13c0,5.514-4.486,10-10,10H96
	c-5.514,0-10-4.486-10-10v-13h130c5.523,0,10-4.478,10-10s-4.477-10-10-10H86v-23h340V449z M428.56,406H83.44L24.112,208.238
	c10.861,3.54,20.169,11.103,25.812,21.435c3.218,5.891,11.198,6.979,15.887,2.238C69.581,228.1,74.62,226,80,226
	c11.028,0,20,8.972,20,20c0,12.076-10.63,21.238-22.24,19.877c-4.063-0.468-8.002,1.571-9.951,5.166
	c-1.949,3.594-1.514,8.013,1.099,11.157l13.027,15.678C96.77,315.746,121.759,326,144.87,326c21.756,0,44.016-8.743,58.091-22.818
	l20.11-20.11c2.86-2.86,3.715-7.161,2.167-10.898C223.691,268.437,220.044,266,216,266h-10c-11.028,0-20-8.972-20-20s8.972-20,20-20
	h15.35c3.574,0,6.876-1.907,8.662-5.003c1.786-3.096,1.784-6.909-0.005-10.003C227.386,206.461,226,201.275,226,196
	c0-18.464,16.775-33.382,36.483-29.325c10.854,2.234,20.174,11.288,22.665,22.014c2.305,9.943-0.443,17.617-3.154,22.305
	c-1.789,3.094-1.792,6.907-0.006,10.003c1.785,3.097,5.088,5.004,8.662,5.004H306c11.028,0,20,8.972,20,20s-8.972,20-20,20h-10
	c-4.045,0-7.691,2.437-9.239,6.173c-1.548,3.737-0.691,8.038,2.168,10.898l20.11,20.11C323.687,317.829,346.5,326,367.13,326
	c24.029,0,48.73-11.036,62.932-28.119l13.03-15.68c2.613-3.146,3.049-7.564,1.1-11.158c-1.95-3.595-5.892-5.641-9.951-5.166
	C433.532,265.96,432.8,266,432,266c-11.028,0-20-8.972-20-20s8.972-20,20-20c5.38,0,10.42,2.1,14.189,5.911
	c2.223,2.248,5.378,3.313,8.506,2.871c3.13-0.441,5.866-2.336,7.381-5.109c5.643-10.332,14.951-17.895,25.812-21.435L428.56,406z"/>
<path d="M256,306c-22.056,0-40,17.944-40,40s17.944,40,40,40s40-17.944,40-40S278.056,306,256,306z M256,366
	c-11.028,0-20-8.972-20-20s8.972-20,20-20c11.028,0,20,8.972,20,20S267.028,366,256,366z"/>
<g>
</g>
<g>
</g>
<g>
</g>
<g>
</g>
<g>
</g>
<g>
</g>
<g>
</g>
<g>
</g>
<g>
</g>
<g>
</g>
<g>
</g>
<g>
</g>
<g>
</g>
<g>
</g>
<g>
</g>
</svg>
