<svg id="Capa_1" enable-background="new 0 0 512 512" height="512" viewBox="0 0 512 512" width="512" xmlns="http://www.w3.org/2000/svg"><g><g><path d="m375.099 477.499-237.599.301 14.101-45.3c22.8-71.699 32.399-145.499 28.799-219.899l-.599-15.601h152.399l-.599 15.601c-3.302 75.3 6.599 149.399 29.099 219.898z" fill="#804d76"/></g><g id="Queen_1_"><g><g><path d="m335.307 164h-158.32l-1.846-12.861c-4.893-34.116-12.803-68.643-23.467-102.656l-10.547-33.691 79.746 39.873 35.127-54.665 35.156 54.679 80.332-39.961-10.927 33.882c-10.4 32.3-18.281 66.812-23.408 102.539z" fill="#804d76"/></g></g></g><path d="m335.307 164 1.846-12.861c5.127-35.728 13.008-70.239 23.408-102.539l10.928-33.882-80.332 39.961-35.157-54.679v164z" fill="#662859"/><path d="m360.7 432.499c-22.5-70.499-32.401-144.598-29.099-219.898l.598-15.601h-76.199v280.649l119.099-.15z" fill="#662859"/><g><g><path d="m391 512h-270v-60h270z" fill="#662859"/></g></g><path d="m151 149h210v63h-210z" fill="#662859"/><g fill="#4d1743"><path d="m256 452h135v60h-135z"/><path d="m256 149h105v63h-105z"/></g></g></svg>